<?xml version="1.0" standalone="no"?>
<!DOCTYPE svg PUBLIC "-//W3C//DTD SVG 20010904//EN"
 "http://www.w3.org/TR/2001/REC-SVG-20010904/DTD/svg10.dtd">
<svg version="1.0" xmlns="http://www.w3.org/2000/svg"
 width="512.000000pt" height="512.000000pt" viewBox="0 0 512.000000 512.000000"
 preserveAspectRatio="xMidYMid meet">
<metadata>
Created by potrace 1.14, written by Peter Selinger 2001-2017
</metadata>
<g transform="translate(0.000000,512.000000) scale(0.100000,-0.100000)"
fill="#000000" stroke="none">
<path d="M1151 4463 c-126 -141 -234 -350 -270 -523 -6 -30 -14 -66 -17 -80
-13 -53 -12 -297 0 -370 38 -219 114 -396 238 -555 51 -66 1448 -1465 1462
-1465 15 0 1706 1694 1706 1709 0 6 -16 26 -36 43 -41 36 -161 128 -167 128
-2 0 -35 17 -73 38 -111 61 -248 107 -387 130 -56 9 -278 9 -347 0 -144 -19
-315 -79 -435 -153 -22 -14 -47 -28 -55 -32 -21 -9 -107 -79 -161 -130 l-46
-44 -680 681 -680 681 -52 -58z"/>
<path d="M850 1201 l0 -601 601 0 601 0 -5 78 c-35 490 -361 910 -823 1061
-50 16 -106 32 -125 35 -19 3 -45 8 -59 11 -14 3 -62 8 -107 11 l-83 6 0 -601z"/>
<path d="M4032 1774 c-364 -73 -669 -308 -841 -650 -35 -70 -88 -225 -96 -281
-4 -21 -8 -44 -11 -51 -2 -8 -7 -54 -10 -103 l-6 -89 601 0 601 0 0 600 0 601
-65 -3 c-36 -2 -114 -13 -173 -24z"/>
</g>
</svg>
